<svg id="Layer_1" data-name="Layer 1" xmlns="http://www.w3.org/2000/svg" viewBox="0 0 300 300"><defs><style>.cls-1{fill:#1d1d1b;}</style></defs><path class="cls-1" d="M257.78,121.65c3.36,0,5.31-1.81,6-3.36a3.64,3.64,0,0,0-1.06-4.3L214.45,67.4l-56.4-53.9a7.53,7.53,0,0,0-9.78,0L91.86,67.41,43.64,114a3.66,3.66,0,0,0-1.06,4.3c.65,1.55,2.6,3.35,6,3.36l104.63.13Z"/><path class="cls-1" d="M153.17,130.64l-81.73-.1v123a8.93,8.93,0,0,0,9,8.8h41V207.22a10.63,10.63,0,0,1,10.75-10.48h41.89a10.63,10.63,0,0,1,10.75,10.48v55.07h41a8.93,8.93,0,0,0,9-8.8v-123Z"/></svg>