<svg id="Layer_2" data-name="Layer 2" xmlns="http://www.w3.org/2000/svg" viewBox="0 0 300 300"><defs><style>.cls-1{fill:#1d1d1b;}</style></defs><path class="cls-1" d="M156.22,31.05,181,107.4a6.56,6.56,0,0,0,6.23,4.52h80.27a6.55,6.55,0,0,1,3.85,11.84l-64.95,47.18a6.55,6.55,0,0,0-2.37,7.32l24.8,76.35a6.55,6.55,0,0,1-10.07,7.32l-64.94-47.19a6.54,6.54,0,0,0-7.7,0L81.21,261.93a6.55,6.55,0,0,1-10.07-7.32l24.8-76.35a6.55,6.55,0,0,0-2.37-7.32L28.62,123.76a6.55,6.55,0,0,1,3.85-11.84h80.27A6.56,6.56,0,0,0,119,107.4l24.81-76.35A6.54,6.54,0,0,1,156.22,31.05Z"/></svg>