<svg xmlns="http://www.w3.org/2000/svg" viewBox="0 0 202.74 156.71"><defs><style>.cls-1{stroke:#fff;stroke-linecap:round;stroke-linejoin:round;stroke-width:2.83px;}</style></defs><g id="Layer_2" data-name="Layer 2"><g id="Layer_3" data-name="Layer 3"><path class="cls-1" d="M84.3,1.42C72.83,70.54,58.83,83.27,58.83,83.27c-19.21-25.85-25-68.1-26.49-81.85H1.68c1.38,12.88,8.93,70.05,37,107.71,0,0-24.29,14.61-37.24,15.28v30.88C22.74,154,95.71,139.36,115,1.42Z"/><path class="cls-1" d="M201.09,51a112,112,0,0,0-1.88-17.34c-3.87-19.17-12.71-26-29.15-29.28-7.77-1.53-28.43-2.27-45-2.64l-.15,1c-1.32,9.42-2.89,18.28-4.67,26.64,7.53,0,15.56,0,17,0,4.69.06,9.4.47,14.08.95,8.39.85,14.25,5.06,16.76,13.16,3.42,11,4.8,22.32,3,33.77-1.52,9.65-4.14,11.88-14,13.15a11.17,11.17,0,0,1-1.29.08c-10.79.29-21.58.85-32.37.74-.68,0-11.78-.48-23.58-.92a169.36,169.36,0,0,1-18.71,30c23.77,0,48.37,0,50.94-.07,9.76-.1,19.56-.45,29.27-1.37a85.26,85.26,0,0,0,17.24-3.72c10.39-3.24,15.66-11.21,18.55-21C201.34,80.08,201.7,65.57,201.09,51Z"/></g></g></svg>