<svg xmlns="http://www.w3.org/2000/svg" viewBox="0 0 199.91 153.87"><defs><style>.cls-1{fill:#fff;}</style></defs><g id="Layer_2" data-name="Layer 2"><g id="Layer_3" data-name="Layer 3"><path class="cls-1" d="M82.88,0C71.42,69.12,57.41,81.85,57.41,81.85,38.21,56,32.36,13.75,30.92,0H.26c1.39,12.88,8.94,70.05,37,107.72,0,0-24.29,14.6-37.24,15.28v30.87C21.32,152.58,94.29,137.94,113.62,0Z"/><path class="cls-1" d="M199.67,49.61a111.89,111.89,0,0,0-1.88-17.34C193.93,13.1,185.09,6.22,168.64,3c-7.77-1.53-28.43-2.27-45-2.64l-.15,1q-2,14.12-4.67,26.63c7.54,0,15.56,0,17,0,4.7.06,9.4.47,14.08,1,8.39.85,14.26,5.07,16.76,13.16,3.42,11,4.8,22.32,3,33.77-1.53,9.65-4.15,11.89-14,13.16-.42.05-.85.06-1.28.08-10.8.28-21.59.84-32.38.73-.68,0-11.78-.48-23.58-.92a169.34,169.34,0,0,1-18.7,30c23.76,0,48.37,0,50.93-.06,9.77-.1,19.56-.46,29.27-1.37a85.82,85.82,0,0,0,17.24-3.73c10.39-3.24,15.66-11.21,18.56-21C199.93,78.66,200.28,64.16,199.67,49.61Z"/></g></g></svg>